HIERARCHY
ROOT joint_Root
{
	OFFSET 0.0 0.0 0.0
	CHANNELS 6 Xposition Yposition Zposition Zrotation Xrotation Yrotation 
	JOINT Hips
	{
		OFFSET -0.726466 93.3139 -2.00062
		CHANNELS 6 Xposition Yposition Zposition Zrotation Xrotation Yrotation 
		JOINT Spine
		{
			OFFSET 15.7357 0.0 0.0
			CHANNELS 6 Xposition Yposition Zposition Zrotation Xrotation Yrotation 
			JOINT Chest
			{
				OFFSET 8.98455 -0.406207 0.0
				CHANNELS 6 Xposition Yposition Zposition Zrotation Xrotation Yrotation 
				JOINT Neck
				{
					OFFSET 16.3773 0.0 0.0
					CHANNELS 6 Xposition Yposition Zposition Zrotation Xrotation Yrotation 
					JOINT Head
					{
						OFFSET 6.45672 0.0 0.0
						CHANNELS 6 Xposition Yposition Zposition Zrotation Xrotation Yrotation 
						End Site
						{
							OFFSET 0.0 0.0 0.0
						}
					}
				}
				JOINT Shoulder_L
				{
					OFFSET 12.9942 -0.242716 4.98039
					CHANNELS 6 Xposition Yposition Zposition Zrotation Xrotation Yrotation 
					JOINT UpperArm_L
					{
						OFFSET 5.34809 0.0 0.0
						CHANNELS 6 Xposition Yposition Zposition Zrotation Xrotation Yrotation 
						JOINT LowerArm_L
						{
							OFFSET 24.3286 1.87007e-05 0.0
							CHANNELS 6 Xposition Yposition Zposition Zrotation Xrotation Yrotation 
							JOINT Hand_L
							{
								OFFSET 22.2916 0.0 0.0
								CHANNELS 6 Xposition Yposition Zposition Zrotation Xrotation Yrotation 
								End Site
								{
									OFFSET 0.0 0.0 0.0
								}
							}
						}
					}
				}
				JOINT Shoulder_R
				{
					OFFSET 12.9945 -0.242716 -4.98039
					CHANNELS 6 Xposition Yposition Zposition Zrotation Xrotation Yrotation 
					JOINT UpperArm_R
					{
						OFFSET -5.34813 0.0 0.0
						CHANNELS 6 Xposition Yposition Zposition Zrotation Xrotation Yrotation 
						JOINT LowerArm_R
						{
							OFFSET -24.3289 0.000322201 0.0
							CHANNELS 6 Xposition Yposition Zposition Zrotation Xrotation Yrotation 
							JOINT Hand_R
							{
								OFFSET -22.2915 -0.000108084 0.0
								CHANNELS 6 Xposition Yposition Zposition Zrotation Xrotation Yrotation 
								End Site
								{
									OFFSET 0.0 0.0 0.0
								}
							}
						}
					}
				}
			}
		}
		JOINT UpperLeg_L
		{
			OFFSET -2.19248 -6.46944 0.0
			CHANNELS 6 Xposition Yposition Zposition Zrotation Xrotation Yrotation 
			JOINT LowerLeg_L
			{
				OFFSET 39.0811 0.0 -1.23785e-05
				CHANNELS 6 Xposition Yposition Zposition Zrotation Xrotation Yrotation 
				JOINT Foot_L
				{
					OFFSET 40.9854 0.0 -1.26872e-05
					CHANNELS 6 Xposition Yposition Zposition Zrotation Xrotation Yrotation 
					JOINT Toes_L
					{
						OFFSET 11.7543 0.0 0.0
						CHANNELS 6 Xposition Yposition Zposition Zrotation Xrotation Yrotation 
						End Site
						{
							OFFSET 0.0 0.0 0.0
						}
					}
				}
			}
		}
		JOINT UpperLeg_R
		{
			OFFSET -2.19251 6.46944 0.0
			CHANNELS 6 Xposition Yposition Zposition Zrotation Xrotation Yrotation 
			JOINT LowerLeg_R
			{
				OFFSET -39.0811 -0.00228153 -0.0401928
				CHANNELS 6 Xposition Yposition Zposition Zrotation Xrotation Yrotation 
				JOINT Foot_R
				{
					OFFSET -40.9854 0.0 0.0
					CHANNELS 6 Xposition Yposition Zposition Zrotation Xrotation Yrotation 
					JOINT Toes_R
					{
						OFFSET -11.7543 0.0 0.0
						CHANNELS 6 Xposition Yposition Zposition Zrotation Xrotation Yrotation 
						End Site
						{
							OFFSET 0.0 0.0 0.0
						}
					}
				}
			}
		}
	}
}
MOTION
Frames:	4
Frame Time:	0.0333333
0.000000 0.000000 0.000000 0.000000 0.000000 -0.000000 -3.472730 82.657800 -42.053000 86.988200 -6.367780 -3.171420 15.735700 0.000005 -0.000001 92.602000 83.097800 -89.763000 8.984550 -0.406207 -0.000000 6.016360 0.581840 5.640970 16.377300 -0.000001 -0.000001 -3.858400 -0.660926 0.622653 6.456720 -0.000001 -0.000000 -2.171310 2.012980 -7.864150 12.994200 -0.242716 4.980390 -89.372900 -1.749800 -70.281500 5.348090 -0.000007 -0.000001 -70.554500 36.465700 6.417730 24.328600 0.000019 0.000005 14.532400 7.151360 -64.344200 22.291600 -0.000001 0.000005 -6.008090 5.669150 -17.274200 12.994500 -0.242716 -4.980390 87.851500 6.460020 -71.560600 -5.348130 -0.000001 -0.000004 -55.052200 26.572700 -22.700500 -24.328900 0.000322 -0.000009 0.149451 -0.001629 -90.622700 -22.291500 -0.000108 -0.000004 6.491190 5.637040 -13.881100 -2.192480 -6.469440 -0.000000 -178.711000 -11.596100 -38.828500 39.081100 -0.000007 -0.000012 -0.529540 -0.526780 134.850000 40.985400 -0.000006 -0.000013 8.753820 -0.800187 -26.616000 11.754300 -0.000000 0.000003 -0.009001 -0.096022 -20.488000 -2.192510 6.469440 -0.000001 -172.989000 6.368540 160.582000 -39.081100 -0.002282 -0.040193 0.200758 -0.129494 56.753900 -40.985400 0.000008 0.000006 14.055000 0.459221 -88.796300 -11.754300 -0.000006 -0.000006 -0.005957 -0.070448 -19.440200
0.000000 0.000000 0.000000 0.000000 0.000000 -0.000000 -2.735690 84.053900 -30.457400 90.900900 -9.679030 -4.062800 15.735700 0.000005 -0.000001 110.590000 83.386800 -109.465000 8.984550 -0.406207 -0.000000 4.583120 4.611970 2.064940 16.377300 -0.000001 -0.000001 -3.431360 -0.884171 1.434870 6.456720 -0.000001 -0.000000 -1.680450 -0.854165 -6.217300 12.994200 -0.242716 4.980390 -88.696000 -3.326950 -68.592500 5.348090 -0.000007 -0.000001 -69.802200 41.468700 14.083200 24.328600 0.000019 0.000005 10.181800 3.853010 -69.517600 22.291600 -0.000001 0.000005 -8.138620 5.664030 -16.538400 12.994500 -0.242716 -4.980390 88.569000 4.620290 -72.773700 -5.348130 -0.000001 -0.000004 -56.369300 24.413000 -30.885500 -24.328900 0.000322 -0.000009 -0.189416 0.028357 -98.213100 -22.291500 -0.000108 -0.000004 5.536840 5.628110 -13.199900 -2.192480 -6.469440 -0.000000 174.917000 -11.574900 -45.546500 39.081100 -0.000007 -0.000012 -0.398563 -0.311556 128.016000 40.985400 -0.000006 -0.000013 7.848830 -1.936040 -38.411800 11.754300 -0.000000 0.000003 -0.008758 -0.094123 -20.410400 -2.192510 6.469440 -0.000001 179.879000 4.910730 171.081000 -39.081100 -0.002282 -0.040193 0.169612 -0.146910 48.552700 -40.985400 0.000008 0.000006 13.709500 3.469480 -85.651500 -11.754300 -0.000006 -0.000006 -1.836240 -1.862930 -25.983400
0.000000 0.000000 0.000000 0.000000 0.000000 -0.000000 -2.107810 87.119400 -18.422200 93.648900 -13.008900 -5.426180 15.735700 0.000005 -0.000001 128.964000 83.174900 -129.438000 8.984550 -0.406207 -0.000000 2.912560 8.595460 -1.167050 16.377300 -0.000001 -0.000001 -3.116330 -0.692695 2.132950 6.456720 -0.000001 -0.000000 -1.098890 -3.819260 -4.124270 12.994200 -0.242716 4.980390 -87.446900 -5.969100 -66.792500 5.348090 -0.000007 -0.000001 -71.032600 43.713400 21.747500 24.328600 0.000019 0.000005 4.448350 1.076910 -76.424200 22.291600 -0.000001 0.000005 -9.048360 5.644050 -14.475600 12.994500 -0.242716 -4.980390 89.227700 2.676120 -73.895600 -5.348130 -0.000001 -0.000004 -58.038700 24.397100 -34.613300 -24.328900 0.000322 -0.000009 -2.252330 0.632046 -105.635000 -22.291500 -0.000108 -0.000004 5.910610 5.611600 -12.061600 -2.192480 -6.469440 -0.000000 170.391000 -11.247400 -48.427600 39.081100 -0.000007 -0.000012 -0.142763 -0.059961 112.787000 40.985400 -0.000006 -0.000013 9.190110 -6.021670 -47.808600 11.754300 -0.000000 0.000003 -0.009209 -0.097636 -20.554000 -2.192510 6.469440 -0.000001 173.948000 3.242740 179.974000 -39.081100 -0.002282 -0.040193 0.122595 -0.151506 38.220600 -40.985400 0.000008 0.000006 12.830200 8.212100 -70.899500 -11.754300 -0.000006 -0.000006 -0.151687 -0.558058 -40.185200
0.000000 0.000000 0.000000 0.000000 0.000000 -0.000000 -1.722160 90.605500 -6.566580 94.254700 -13.141100 -5.999400 15.735700 0.000005 -0.000001 137.154000 82.862100 -138.300000 8.984550 -0.406207 -0.000000 2.082880 10.516700 -2.486240 16.377300 -0.000001 -0.000001 -2.960380 -1.185150 2.499370 6.456720 -0.000001 -0.000000 -0.958304 -5.926320 -3.198040 12.994200 -0.242716 4.980390 -86.362500 -8.337000 -66.325000 5.348090 -0.000007 -0.000001 -72.953800 42.618300 28.614600 24.328600 0.000019 0.000005 3.917830 0.503472 -82.698500 22.291600 -0.000001 0.000005 -8.731710 5.629460 -13.302700 12.994500 -0.242716 -4.980390 89.625400 1.289970 -73.802800 -5.348130 -0.000001 -0.000004 -57.899800 26.096400 -37.374100 -24.328900 0.000322 -0.000009 -3.135350 1.160160 -110.288000 -22.291500 -0.000108 -0.000004 4.291830 5.595910 -11.093900 -2.192480 -6.469440 -0.000000 169.491000 -8.974710 -47.630700 39.081100 -0.000007 -0.000012 -0.013567 -0.000596 92.555000 40.985400 -0.000006 -0.000013 7.865330 -14.146100 -53.932700 11.754300 -0.000000 0.000003 -0.007763 -0.086100 -20.082600 -2.192510 6.469440 -0.000001 169.879000 6.165330 -172.780000 -39.081100 -0.002282 -0.040193 0.061650 -0.107246 28.547700 -40.985400 0.000008 0.000006 6.925430 15.307100 -46.390300 -11.754300 -0.000006 -0.000006 -0.240278 -0.708163 -47.256300
